<?xml version="1.0" standalone="no"?>
<!DOCTYPE svg PUBLIC "-//W3C//DTD SVG 20010904//EN"
 "http://www.w3.org/TR/2001/REC-SVG-20010904/DTD/svg10.dtd">
<svg version="1.0" xmlns="http://www.w3.org/2000/svg"
 width="1775.000000pt" height="737.000000pt" viewBox="0 0 1775.000000 737.000000"
 preserveAspectRatio="xMidYMid meet">
<metadata>
Created by potrace 1.16, written by Peter Selinger 2001-2019
</metadata>
<g transform="translate(0.000000,737.000000) scale(0.100000,-0.100000)"
fill="#000000" stroke="none">
<path d="M15800 7350 c-315 -67 -612 -282 -702 -509 -18 -46 -22 -76 -22 -166
0 -98 3 -120 31 -202 56 -160 140 -311 230 -413 l40 -44 -140 -63 c-77 -35
-170 -83 -206 -108 -154 -102 -302 -268 -382 -430 -72 -145 -91 -229 -93 -401
l-1 -142 -100 -5 c-72 -3 -118 -11 -166 -29 l-67 -25 24 69 c31 93 69 266 91
413 13 96 17 194 17 491 1 356 2 373 21 394 21 23 161 94 207 105 41 10 51 29
56 108 4 63 -18 240 -31 253 -2 3 -56 -11 -118 -30 -193 -58 -486 -120 -882
-186 -125 -21 -230 -40 -233 -43 -3 -3 8 -29 25 -58 59 -105 141 -356 141
-430 0 -29 -2 -27 -102 56 -178 147 -381 252 -563 291 -118 25 -314 23 -428
-4 -267 -65 -476 -242 -614 -517 -105 -209 -157 -438 -172 -755 -6 -139 -8
-152 -20 -125 -31 72 -42 171 -42 360 0 269 31 571 96 950 13 77 27 167 30
201 l7 61 78 32 c146 60 199 118 186 208 -9 64 -38 113 -104 175 -164 152
-476 227 -829 200 -339 -26 -483 -110 -483 -280 0 -184 130 -324 359 -383 129
-34 405 -36 570 -4 l26 5 -25 -10 c-44 -20 -321 -89 -437 -109 -165 -30 -328
-49 -501 -61 l-153 -10 -67 52 c-212 163 -539 230 -895 183 -205 -27 -349 -79
-494 -178 -46 -31 -83 -52 -83 -47 0 5 11 80 25 166 14 86 24 161 23 165 -2 4
-37 -13 -78 -38 -234 -144 -459 -218 -696 -230 -121 -6 -155 6 -78 27 24 7 49
21 54 31 14 25 11 203 -4 274 -15 72 -5 70 -173 21 -168 -50 -444 -108 -788
-167 -159 -27 -291 -49 -293 -49 -1 0 11 -24 27 -52 59 -104 128 -311 147
-434 l7 -49 -54 51 c-278 260 -613 388 -928 354 -274 -29 -458 -140 -651 -391
-14 -18 -15 -6 -16 128 -1 116 -6 167 -23 238 -65 265 -240 461 -477 531 -81
24 -264 24 -359 0 -161 -41 -329 -148 -470 -298 -131 -139 -341 -428 -435
-599 -22 -41 -38 -63 -35 -49 15 72 35 365 35 524 0 436 -79 671 -254 752 -73
34 -189 33 -292 -1 -211 -71 -460 -240 -625 -426 -171 -191 -295 -410 -395
-694 l-42 -119 -7 63 c-4 34 -4 126 0 204 14 306 58 578 134 837 22 74 38 137
36 138 -2 2 -199 -10 -437 -27 -238 -17 -514 -35 -613 -41 -99 -5 -226 -13
-282 -16 l-103 -6 0 -78 c0 -96 16 -176 40 -200 13 -13 43 -18 141 -24 136 -8
179 -22 213 -69 18 -24 21 -50 28 -210 27 -665 100 -1199 221 -1617 l33 -116
-80 24 c-67 19 -97 23 -176 19 -52 -2 -108 -10 -124 -18 l-28 -13 7 -221 c4
-121 9 -222 11 -224 2 -3 14 5 27 17 12 11 48 33 79 47 96 44 186 58 368 59
158 1 360 -18 360 -34 0 -4 -20 -13 -45 -19 -155 -39 -357 -160 -487 -291
-271 -274 -418 -682 -458 -1270 -43 -636 63 -1081 315 -1319 l54 -51 -630 0
-629 0 0 -700 0 -700 8875 0 8875 0 0 700 0 700 -925 0 -925 0 0 234 0 234
-52 13 c-84 21 -221 16 -304 -13 l-71 -23 39 84 c90 197 172 446 222 681 23
104 66 374 66 409 0 8 31 -32 68 -90 38 -57 105 -150 150 -205 116 -145 352
-408 369 -412 18 -5 453 136 586 189 350 140 522 282 535 446 9 112 -90 242
-242 317 -96 47 -172 67 -287 73 -113 6 -182 -10 -272 -63 -32 -19 -62 -34
-66 -34 -4 0 -19 25 -34 55 -57 116 -165 202 -314 251 -79 26 -102 29 -218 29
-117 0 -136 -3 -191 -26 l-61 -25 -6 185 c-6 182 -23 336 -52 495 -9 44 -14
80 -13 81 2 1 61 12 132 25 71 12 219 49 329 82 109 32 201 58 202 56 5 -6
244 -455 266 -500 17 -36 31 -50 56 -59 47 -15 66 -5 121 64 172 219 423 417
705 557 76 38 142 70 148 72 7 2 -114 224 -156 286 -1 1 -15 -2 -30 -8 -63
-24 -147 -90 -257 -203 l-117 -119 -71 108 -71 109 23 15 c95 62 239 180 323
264 233 234 347 491 362 816 10 209 -22 369 -94 479 -124 190 -301 246 -487
155 -194 -95 -458 -442 -523 -685 -22 -86 -22 -224 0 -267 50 -94 229 -136
369 -86 103 36 243 123 378 233 41 33 81 61 87 61 18 0 26 -43 19 -95 -10 -62
-55 -148 -120 -227 -96 -116 -321 -304 -472 -393 l-41 -24 -138 180 c-200 260
-382 477 -518 615 l-118 122 38 12 c76 25 207 91 287 144 175 117 298 276 354
457 27 88 45 248 37 322 -29 249 -232 438 -538 501 -106 22 -325 20 -437 -4z
m420 -531 c89 -14 158 -54 188 -110 20 -37 23 -54 19 -111 -11 -165 -137 -291
-387 -384 -66 -24 -89 -28 -190 -28 -109 -1 -118 0 -169 29 -101 56 -179 177
-167 261 16 119 127 224 308 294 136 53 273 69 398 49z m-6457 -664 c102 -26
187 -79 187 -116 0 -13 -19 -23 -72 -39 -302 -91 -498 -263 -543 -477 -41
-191 14 -280 195 -319 93 -20 352 -14 480 11 356 68 560 167 626 303 30 60 30
171 1 270 -21 72 -22 82 -8 82 29 0 95 -45 118 -79 39 -58 46 -104 40 -276 -6
-180 -23 -303 -67 -483 -56 -232 -123 -345 -230 -391 -60 -26 -192 -61 -229
-61 -14 0 -32 -4 -38 -8 -12 -7 -79 -309 -71 -317 2 -2 93 12 204 30 409 68
684 95 972 95 l185 0 -72 -36 c-108 -54 -149 -124 -138 -233 10 -91 35 -147
93 -210 113 -123 273 -173 545 -172 320 1 641 87 743 201 37 42 38 44 33 101
-6 69 -38 129 -96 182 l-39 36 36 5 c20 3 66 8 102 12 248 24 499 116 689 252
108 77 105 77 97 1 -4 -35 -18 -128 -32 -207 -14 -79 -24 -146 -21 -148 3 -3
40 13 83 34 270 136 752 234 991 202 48 -6 89 -13 91 -14 7 -7 -109 -15 -138
-9 l-32 6 4 -109 c3 -82 9 -120 25 -155 l21 -46 75 -7 c153 -14 223 -55 246
-143 93 -357 121 -564 126 -948 4 -286 4 -289 -10 -180 -16 123 -53 262 -89
334 -99 194 -310 320 -636 377 -88 16 -157 19 -425 19 -339 0 -426 -7 -638
-51 -343 -72 -593 -225 -711 -436 -152 -273 -116 -739 83 -1080 37 -64 38 -66
17 -72 -45 -12 -121 -6 -152 13 -82 50 -107 156 -107 441 0 266 26 524 92 930
39 232 42 263 33 276 -5 8 -46 -1 -137 -32 -321 -107 -680 -174 -1035 -193
l-135 -7 -70 53 c-165 125 -341 179 -615 190 -324 13 -600 -58 -791 -204 -40
-30 -65 -44 -63 -34 11 50 54 335 51 338 -2 1 -42 -20 -88 -48 -167 -100 -333
-168 -504 -205 -111 -23 -330 -22 -446 4 -47 10 -90 17 -97 14 -7 -2 -12 -15
-12 -29 0 -20 -4 -24 -17 -18 -129 52 -233 69 -413 68 -221 -1 -406 -41 -565
-121 -138 -69 -228 -145 -347 -295 -39 -48 -72 -86 -74 -84 -6 6 33 300 56
422 53 275 139 564 247 824 l58 140 86 21 c108 25 298 55 305 47 3 -3 12 -31
20 -64 20 -77 64 -173 79 -173 6 0 81 16 166 35 510 114 957 165 1455 165
l231 0 31 137 c17 76 30 139 28 141 -2 2 -71 10 -152 18 -235 23 -406 55 -480
90 -38 18 -42 27 -89 198 -53 188 -93 389 -106 524 -10 99 -9 131 4 207 44
245 223 421 492 480 82 18 219 18 288 0z m-5381 -105 c35 -38 48 -87 48 -185
0 -200 -85 -531 -237 -930 -68 -178 -171 -402 -223 -486 -16 -27 -30 -53 -30
-57 0 -4 179 -4 397 1 219 4 522 3 673 -2 151 -4 276 -7 278 -6 2 2 -21 52
-52 112 l-55 110 -240 48 -240 48 132 131 c135 133 235 251 310 363 22 34 43
61 45 58 2 -2 -2 -46 -9 -97 -20 -150 -15 -388 9 -480 31 -115 69 -185 137
-253 104 -104 244 -156 465 -174 65 -5 127 -14 137 -20 10 -6 65 -20 122 -31
113 -22 152 -40 185 -83 19 -26 21 -44 24 -187 l3 -158 -48 -16 c-174 -56
-567 -139 -928 -196 -110 -17 -205 -33 -212 -35 -7 -2 5 -35 31 -88 24 -46 57
-127 74 -178 32 -99 66 -248 58 -257 -3 -2 -36 23 -73 57 -150 137 -371 261
-550 308 -83 21 -121 26 -243 26 -211 1 -351 -37 -505 -138 -134 -88 -291
-279 -362 -442 l-27 -63 -216 5 c-118 3 -406 10 -640 15 -234 6 -448 13 -476
16 l-52 6 -6 -38 c-8 -44 7 -162 23 -192 12 -22 16 -23 161 -47 114 -20 148
-39 182 -102 44 -83 101 -374 101 -523 1 -110 -11 -158 -53 -221 -45 -68 -113
-102 -217 -107 -75 -4 -88 -2 -138 23 -175 85 -263 349 -400 1195 -51 313 -45
614 16 803 109 334 371 550 714 586 228 25 481 -32 594 -134 44 -40 52 -68 23
-84 -10 -5 -86 -10 -168 -9 -169 0 -243 -16 -345 -78 -81 -49 -172 -150 -198
-219 -60 -160 1 -288 189 -393 162 -91 363 -134 620 -134 315 0 464 58 532
207 20 43 23 66 23 165 0 176 -42 328 -126 454 -22 32 -38 60 -37 61 2 2 40
-5 85 -15 l82 -18 35 96 c19 53 34 97 33 97 -1 1 -62 26 -135 56 -127 52 -133
55 -142 89 -15 59 -29 196 -35 375 l-7 170 32 100 c124 383 331 774 515 973
75 81 128 119 198 143 64 23 104 17 139 -21z m-1704 16 c99 -51 153 -217 173
-530 22 -355 -24 -783 -118 -1079 -22 -72 -27 -78 -46 -73 -12 3 -118 9 -235
13 -117 3 -215 9 -217 12 -6 11 -75 338 -96 459 -34 197 -35 260 -5 402 66
325 181 591 313 724 77 79 165 106 231 72z m5468 -203 c21 -11 45 -32 52 -46
38 -78 35 -339 -8 -732 -28 -250 -23 -234 -68 -224 -96 22 -287 3 -364 -37
-29 -15 -31 -15 -24 2 26 67 79 289 96 403 23 153 45 509 37 588 -6 57 -9 54
63 67 59 11 178 -1 216 -21z m7550 -236 c50 -67 134 -188 187 -268 132 -202
358 -581 354 -594 -5 -15 -113 -42 -223 -56 -109 -13 -225 -8 -300 15 -120 37
-238 150 -283 270 -63 168 -43 423 45 603 34 68 100 153 120 153 5 0 50 -55
100 -123z m-8799 -116 c108 -23 206 -64 234 -99 99 -126 -207 -353 -584 -434
-194 -41 -522 -24 -717 38 -136 43 -199 101 -185 171 24 131 393 298 755 343
117 14 390 4 497 -19z m6478 5 c140 -28 217 -64 259 -119 17 -24 18 -31 7 -68
-41 -136 -349 -309 -641 -360 -92 -16 -344 -16 -460 0 -180 26 -335 81 -378
136 -37 46 -30 97 20 151 102 110 399 230 653 263 44 6 94 13 110 15 58 9 361
-4 430 -18z m-6365 -978 c0 -39 -18 -169 -24 -175 -1 -1 -68 3 -148 9 l-147
12 87 48 c47 27 115 70 151 97 36 27 69 50 74 50 4 1 7 -18 7 -41z m-736
-1150 c3 -13 8 -81 11 -153 7 -145 38 -470 61 -639 33 -248 121 -696 149 -768
9 -22 13 -22 -65 6 l-65 24 -6 61 c-3 34 -9 65 -13 69 -4 4 -74 7 -154 7 -127
0 -155 -3 -206 -23 -33 -12 -61 -20 -62 -19 -2 2 8 38 22 81 60 189 91 395
104 681 4 110 7 202 5 205 -2 3 -5 87 -7 187 -4 213 -8 203 117 264 93 45 103
47 109 17z m4221 -116 c69 -26 129 -70 133 -100 3 -17 -4 -23 -40 -32 -185
-46 -354 -142 -456 -255 -145 -163 -176 -414 -62 -495 123 -87 435 -92 767
-10 266 65 412 148 480 273 26 47 23 200 -5 286 l-21 63 31 -6 c47 -9 98 -53
122 -105 19 -42 21 -62 20 -216 -2 -328 -93 -707 -199 -833 -15 -18 -54 -46
-86 -63 -60 -30 -202 -69 -252 -69 -35 0 -40 -11 -72 -174 -14 -71 -27 -131
-28 -133 -2 -2 -386 -2 -853 -1 l-849 3 160 23 c291 41 455 53 800 59 l341 6
31 136 c16 75 28 139 26 144 -2 4 -25 7 -51 7 -147 0 -483 56 -568 94 l-51 23
-42 149 c-77 276 -120 507 -121 642 0 88 26 206 62 278 74 153 241 276 433
320 91 21 275 13 350 -14z m3430 -32 c197 -31 315 -112 315 -215 0 -84 -81
-151 -215 -176 -81 -15 -494 -5 -597 15 -170 32 -276 85 -304 151 -20 48 -18
60 16 98 70 81 298 133 590 136 74 0 162 -3 195 -9z m-5099 -246 c59 -28 68
-58 72 -245 4 -182 -11 -380 -57 -755 -32 -261 -36 -272 -118 -316 -26 -14
-92 -42 -145 -63 -95 -37 -98 -39 -98 -70 0 -18 7 -54 15 -81 8 -27 15 -52 15
-57 0 -4 -291 -6 -647 -5 l-647 3 -27 90 c-15 50 -28 104 -28 122 l-1 32 83
-39 c168 -80 369 -121 607 -123 168 -2 230 11 355 72 307 151 561 592 614
1065 14 116 -3 287 -36 372 -7 18 1 18 43 -2z m-895 -343 c229 -49 415 -136
455 -212 39 -76 0 -138 -123 -196 -141 -65 -360 -105 -578 -106 -196 0 -344
35 -540 128 -142 68 -215 134 -215 194 0 80 214 175 475 210 117 16 415 6 526
-18z m-2951 9 c229 -29 360 -91 360 -172 0 -42 -21 -77 -82 -134 -97 -92 -271
-179 -466 -232 -92 -25 -109 -26 -327 -26 -247 0 -356 15 -491 66 -75 29 -144
93 -144 134 0 83 113 173 320 255 254 100 566 141 830 109z m8617 -55 c434
-68 853 -140 1096 -187 215 -42 217 -42 217 -68 0 -76 -89 -559 -151 -823
l-31 -127 -201 0 -202 0 70 35 c138 68 241 172 327 330 42 78 43 82 43 175 0
113 -15 151 -86 220 -118 116 -393 191 -704 191 -320 0 -495 -95 -495 -268 0
-211 186 -400 463 -471 43 -11 81 -23 84 -26 26 -26 -115 -67 -232 -67 -309 1
-516 227 -564 616 -19 152 -10 467 14 506 10 15 52 11 352 -36z m-10204 -848
c55 -171 160 -270 352 -333 l70 -23 -515 0 -515 0 105 39 c140 53 353 159 414
205 l48 38 -7 92 c-4 51 -3 114 1 141 l8 49 8 -67 c4 -36 18 -100 31 -141z
m1797 -182 c-6 -44 -16 -101 -22 -127 l-10 -48 -341 1 -342 0 95 20 c218 46
442 148 590 271 l35 29 3 -33 c2 -18 -2 -69 -8 -113z m7714 -50 c34 -24 98
-62 141 -85 l79 -40 -1084 1 -1085 1 104 19 c142 25 461 67 606 79 262 22 628
10 905 -30 74 -11 142 -20 150 -20 13 0 14 18 12 112 l-4 112 57 -52 c32 -29
85 -73 119 -97z m-6824 -51 l0 -65 30 21 c68 48 234 86 265 60 13 -11 18 -10
28 4 24 33 361 -10 539 -68 l73 -24 -804 -1 c-442 -1 -802 1 -800 4 11 10 255
76 356 95 102 19 224 36 286 39 27 1 27 1 27 -65z m9546 -20 c44 -7 105 -23
135 -33 l54 -20 -410 1 c-371 0 -406 1 -365 14 188 60 390 73 586 38z"/>
</g>
</svg>
